<svg width="479" height="71" viewBox="0 0 479 71" fill="none" xmlns="http://www.w3.org/2000/svg">
<g filter="url(#filter0_d_1_29)">
<path d="M25.8518 58.4855C19.6338 63.9059 13.3909 64.7997 4 53.3452L25.8518 58.4855C32.1686 52.9789 38.4599 42.8007 48 36.1512C88.4438 7.96197 119.413 22.9061 146.725 36.085L146.862 36.1512C173.786 46.7072 200.149 40.5495 209.966 36.1512C209.264 40.5495 223.007 32.7153 241.517 14.2424C260.028 -4.23044 278.787 0.142728 286.5 1.2423C293.512 -0.95686 322.614 -0.272011 363 14.2424C416.848 39.3127 455.368 49.3461 475 49.3461L397.172 59.2423L304.621 49.3461C301.816 52.6449 285.269 59.2423 241.517 59.2423C197.766 59.2423 151.77 52.6449 134.241 49.3461L92.1724 59.2423H29.069L25.8518 58.4855Z" fill="#4B5976"/>
</g>
<defs>
<filter id="filter0_d_1_29" x="0" y="0" width="479" height="70.3457" filterUnits="userSpaceOnUse" color-interpolation-filters="sRGB">
<feFlood flood-opacity="0" result="BackgroundImageFix"/>
<feColorMatrix in="SourceAlpha" type="matrix" values="0 0 0 0 0 0 0 0 0 0 0 0 0 0 0 0 0 0 127 0" result="hardAlpha"/>
<feOffset dy="4"/>
<feGaussianBlur stdDeviation="2"/>
<feComposite in2="hardAlpha" operator="out"/>
<feColorMatrix type="matrix" values="0 0 0 0 0 0 0 0 0 0 0 0 0 0 0 0 0 0 0.25 0"/>
<feBlend mode="normal" in2="BackgroundImageFix" result="effect1_dropShadow_1_29"/>
<feBlend mode="normal" in="SourceGraphic" in2="effect1_dropShadow_1_29" result="shape"/>
</filter>
</defs>
</svg>
